<svg width="131" height="121" viewBox="0 0 131 121" fill="none" xmlns="http://www.w3.org/2000/svg">
<path d="M33.6779 6.14791C31.2919 0.844906 28.7809 0.7379 26.5119 0.6449C24.6539 0.5649 22.5299 0.570903 20.4079 0.570903C18.2839 0.570903 14.8329 1.3699 11.9159 4.5549C8.99594 7.7429 0.767944 15.4469 0.767944 31.1159C0.767944 46.7849 12.1809 61.9289 13.7719 64.0559C15.3649 66.1789 35.8049 99.3629 68.1769 112.129C95.0809 122.738 100.556 120.628 106.395 120.096C112.235 119.566 125.239 112.394 127.892 104.957C130.547 97.5209 130.547 91.1469 129.751 89.8149C128.955 88.4879 126.831 87.6909 123.646 86.0989C120.461 84.5069 104.802 76.8009 101.883 75.7379C98.9629 74.6759 96.8399 74.1459 94.7159 77.3349C92.5919 80.5189 86.4929 87.6909 84.6339 89.8149C82.7769 91.9439 80.9179 92.2089 77.7339 90.6159C74.5469 89.0179 64.2899 85.6589 52.1209 74.8099C42.6529 66.3679 36.2609 55.9429 34.4029 52.7539C32.5449 49.5699 34.2039 47.8439 35.8009 46.2569C37.2319 44.8299 38.9869 42.5379 40.5809 40.6789C42.1689 38.8189 42.6989 37.4919 43.7609 35.3679C44.8239 33.2419 44.2919 31.3819 43.4969 29.7889C42.6989 28.1959 36.5099 12.4449 33.6779 6.14791Z" fill="white"/>
</svg>
